<svg version="1" xmlns="http://www.w3.org/2000/svg" width="341.333" height="341.333" viewBox="0 0 256.000000 256.000000"><path d="M112.8 1.7c-.5 2-.1 42.7.5 51.2.2 3 .2 6.5-.1 7.9-.3 1.3-4.5 6.6-9.4 11.7-4.9 5.2-9.2 10.6-9.7 12.2-.4 1.5-.6 10.3-.5 19.5.3 16.5.2 16.8-1.9 16.8-3.2 0-8.4-4.1-10.1-8-2.3-5.2-2.7-8.8-1-9.4 1.1-.4 1.4-2.9 1.4-11 0-9.1-.2-10.7-1.8-11.5-1.4-.8-11.2-.9-21.4-.2C57.2 81 57 82.2 57 92c0 8.8.3 11.2 1.5 11.6 1.8.7 1.1 6.5-1.2 10.4-1.9 3.4-6.9 6.6-11.3 7.4-5 .9-10.4 4.9-12.3 8.9-1.5 3.2-1.7 9.6-1.7 62.3l-.1 58.7 2.2 2.3 2.2 2.4h182.8l2.4-2.5c2.2-2.1 2.5-3.3 2.5-10.2.1-4.3.1-32.4.1-62.5 0-47.1-.2-55.1-1.5-57.7-.9-1.6-6.2-6.6-12-11.2-9.9-7.9-10.4-8.4-9.4-10.8 1.8-4.3 1.2-21.7-.9-29.8-1.2-4.6-1.6-7.4-.9-7.6 1.2-.4 1.6-22.5.4-24.9-.7-1.4-2.7-1.6-14.4-1.6-12.9 0-13.6.1-14.3 2.1-1.3 3.4-.7 23.7.6 24.5.9.6.9 1.8-.2 4.8-3 8.7-3.9 26.6-1.6 32.6.8 2.2.4 2.9-4 6.4-2.7 2.1-5.3 4-5.7 4.2-.4.1-.7-6.3-.7-14.2V83.2l-9.2-9.5c-9.6-9.9-10.8-12.2-10.5-19.7.6-15 1-50.8.6-52.3-.5-1.5-2-1.7-13.9-1.7-11.8 0-13.3.2-13.7 1.7z"/></svg>